<svg width="54" height="53" viewBox="0 0 54 53" fill="none" xmlns="http://www.w3.org/2000/svg">
<path d="M30.8949 19.4209L0.464844 49.8509C0.691509 50.3257 1.00174 50.7706 1.39501 51.164C3.2533 53.0222 6.26605 53.023 8.12505 51.164L35.3815 23.9075L30.8949 19.4209ZM3.63836 48.9208C3.01883 48.3013 3.01883 47.297 3.63836 46.6775C4.25789 46.0579 5.26218 46.0579 5.88171 46.6775C6.50124 47.297 6.50124 48.3013 5.88171 48.9208C5.26218 49.5403 4.25779 49.5403 3.63836 48.9208Z" fill="#A4A6AA"/>
<path d="M3.63754 48.9211C3.01801 48.3016 3.01811 47.2973 3.63764 46.6778C4.25717 46.0582 5.26146 46.0581 5.88099 46.6776C6.50011 47.2968 6.50041 48.3 5.88222 48.9196L33.1376 21.6643L28.651 17.1777L1.3945 44.4342C-0.0712276 45.8998 -0.380736 48.0819 0.464227 49.8512C2.23238 50.6957 4.4129 50.3869 5.87852 48.9234C5.25879 49.5405 4.25625 49.5399 3.63754 48.9211Z" fill="#C5C6C8"/>
<path d="M8.12419 44.435C8.52239 44.8332 8.83467 45.2845 9.06205 45.7661L29.3186 25.5098C29.9381 24.8902 29.9381 23.8859 29.3186 23.2664C28.6991 22.6469 27.6948 22.6469 27.0752 23.2664L6.82764 43.514C7.29606 43.7402 7.73573 44.0463 8.12419 44.435Z" fill="#E2E3E3"/>
<path d="M51.5678 7.76758L42.8359 20.1904L48.8238 21.6804C52.5986 17.925 53.5113 12.3911 51.5678 7.76758Z" fill="#A4A6AA"/>
<path d="M41.3073 0.0819253C37.6096 -0.339068 33.7208 0.905536 30.877 3.73433C30.8614 3.74994 34.2604 10.1201 34.2604 10.1201L41.3073 0.0819253Z" fill="#C5C6C8"/>
<path d="M41.3092 0.0810547L32.7666 8.6237L35.0099 10.867L44.8589 1.0181C43.7186 0.531202 42.5221 0.218614 41.3092 0.0810547Z" fill="#A4A6AA"/>
<path d="M51.5685 7.76758C52.1928 11.072 50.3522 15.678 46.5813 19.4369L40.9912 18.3449L51.5685 7.76758Z" fill="#C5C6C8"/>
<path d="M30.8793 3.73438C28.4318 6.20582 27.2036 9.4396 27.2036 12.6656L27.2029 18.6261L27.1558 18.6732L33.8858 25.4033L39.8464 25.4025C43.0941 25.4033 46.3474 24.1586 48.8254 21.6804L30.8793 3.73438Z" fill="#E2E3E3"/>
<path d="M38.7711 16.0784L37.0886 15.5176L36.5278 13.8351L34.2845 11.5918L32.041 13.8351L34.2845 16.0784L35.9669 16.6393L36.5278 18.3217L38.7711 20.5652L41.0144 18.3217L38.7711 16.0784Z" fill="#83878C"/>
<path d="M36.5287 18.3214L38.772 16.0781L36.5287 13.8349L34.2854 16.0781L36.5287 18.3214Z" fill="#A4A6AA"/>
<path d="M51.7307 39.958C51.7307 39.7178 51.7222 39.4749 51.7051 39.2321L53.999 37.2682L53.887 36.8245C53.7335 36.2165 53.5346 35.6155 53.2955 35.0374C53.0561 34.4604 52.7718 33.8948 52.4505 33.3563L52.2159 32.9633L49.2101 33.1962C48.8896 32.8264 48.5426 32.4789 48.1733 32.1578L48.4066 29.1464L48.0137 28.9119C47.4751 28.5905 46.9095 28.3062 46.3318 28.0665C45.7544 27.8277 45.1534 27.6288 44.5455 27.4753L44.1018 27.3633L42.1414 29.653C41.8929 29.6352 41.6459 29.6263 41.399 29.6263L39.1851 31.8401L41.399 34.0541C44.6544 34.0541 47.3029 36.7026 47.3029 39.9579C47.3029 43.2133 44.6544 45.8618 41.399 45.8618L39.1851 48.0758L41.399 50.2896C41.6406 50.2896 41.8821 50.2811 42.1249 50.2641L44.0888 52.558L44.5325 52.4459C45.1405 52.2924 45.7415 52.0935 46.3196 51.8545C46.8966 51.6151 47.4623 51.3308 48.0007 51.0094L48.3936 50.7749L48.1607 47.7691C48.5305 47.4486 48.8781 47.1016 49.1992 46.7322L52.2106 46.9656L52.445 46.5726C52.7665 46.0341 53.0508 45.4685 53.2905 44.8908C53.5292 44.3134 53.7282 43.7124 53.8817 43.1045L53.9937 42.6608L51.704 40.7004C51.7217 40.4519 51.7307 40.2035 51.7307 39.958V39.958Z" fill="#587AA1"/>
<path d="M31.0681 39.958C31.0681 39.7178 31.0766 39.4749 31.0937 39.2321L28.7998 37.2682L28.9118 36.8245C29.0653 36.2165 29.2642 35.6155 29.5033 35.0374C29.7427 34.4604 30.027 33.8948 30.3483 33.3563L30.5829 32.9633L33.5887 33.1962C33.9092 32.8264 34.2562 32.4789 34.6255 32.1578L34.3922 29.1464L34.7851 28.9119C35.3237 28.5905 35.8893 28.3062 36.467 28.0665C37.0444 27.8277 37.6454 27.6288 38.2533 27.4753L38.697 27.3633L40.6574 29.653C40.9059 29.6352 41.1529 29.6263 41.3998 29.6263V34.0541C38.1444 34.0541 35.4959 36.7026 35.4959 39.9579C35.4959 43.2133 38.1444 45.8618 41.3998 45.8618V50.2896C41.1582 50.2896 40.9166 50.2811 40.6739 50.2641L38.71 52.558L38.2663 52.4459C37.6583 52.2924 37.0573 52.0935 36.4792 51.8545C35.9022 51.6151 35.3365 51.3308 34.7981 51.0094L34.4052 50.7749L34.6381 47.7691C34.2683 47.4486 33.9207 47.1016 33.5996 46.7322L30.5882 46.9656L30.3538 46.5726C30.0323 46.0341 29.748 45.4685 29.5083 44.8908C29.2696 44.3134 29.0706 43.7124 28.9171 43.1045L28.8051 42.6608L31.0948 40.7004C31.077 40.4519 31.0681 40.2035 31.0681 39.958Z" fill="#587AA1"/>
<path d="M41.4013 32.5781L39.9253 34.0541L41.4013 35.5301C43.8428 35.5301 45.8292 37.5164 45.8292 39.958C45.8292 42.3995 43.8428 44.3859 41.4013 44.3859L39.9253 45.8618L41.4013 47.3378C45.4705 47.3378 48.7811 44.0272 48.7811 39.958C48.7811 35.8887 45.4705 32.5781 41.4013 32.5781V32.5781Z" fill="#81A6C7"/>
<path d="M36.972 39.958C36.972 37.5164 38.9583 35.5301 41.3998 35.5301V32.5781C37.3306 32.5781 34.02 35.8887 34.02 39.958C34.02 44.0272 37.3306 47.3378 41.3998 47.3378V44.3859C38.9583 44.3859 36.972 42.3995 36.972 39.958V39.958Z" fill="#81A6C7"/>
<path d="M35.3589 44.9992C35.3589 44.8551 35.3538 44.7093 35.3436 44.5637L36.7199 43.3853L36.6527 43.1191C36.5606 42.7543 36.4412 42.3937 36.2978 42.0469C36.1542 41.7006 35.9836 41.3613 35.7908 41.0382L35.6501 40.8024L33.8466 40.9422C33.6543 40.7203 33.4461 40.5117 33.2245 40.3191L33.3645 38.5123L33.1287 38.3716C32.8056 38.1787 32.4662 38.0081 32.1196 37.8643C31.7732 37.721 31.4126 37.6017 31.0478 37.5096L30.7816 37.4424L29.6053 38.8162C29.4563 38.8055 29.308 38.8002 29.1599 38.8002L27.8315 40.1285L29.1599 41.4569C31.1131 41.4569 32.7022 43.0459 32.7022 44.9992C32.7022 46.9524 31.1131 48.5415 29.1599 48.5415L27.8315 49.8699L29.1599 51.1982C29.3049 51.1982 29.4498 51.1931 29.5954 51.1829L30.7738 52.5592L31.04 52.492C31.4048 52.3999 31.7654 52.2805 32.1123 52.1371C32.4585 51.9935 32.7979 51.8229 33.1209 51.63L33.3567 51.4894L33.2169 49.6859C33.4388 49.4936 33.6474 49.2854 33.84 49.0638L35.6468 49.2038L35.7875 48.968C35.9804 48.6449 36.151 48.3055 36.2948 47.9589C36.4381 47.6125 36.5574 47.2519 36.6495 46.8871L36.7167 46.6209L35.3429 45.4446C35.3535 45.2956 35.3589 45.1465 35.3589 44.9992V44.9992Z" fill="#3A4F66"/>
<path d="M22.9611 45.0002C22.9611 44.856 22.9662 44.7103 22.9764 44.5647L21.6001 43.3863L21.6673 43.1201C21.7594 42.7553 21.8788 42.3947 22.0222 42.0478C22.1658 41.7016 22.3364 41.3623 22.5292 41.0392L22.6699 40.8034L24.4734 40.9431C24.6657 40.7212 24.8739 40.5127 25.0955 40.32L24.9555 38.5132L25.1913 38.3725C25.5144 38.1797 25.8538 38.0091 26.2004 37.8653C26.5468 37.722 26.9074 37.6027 27.2722 37.5106L27.5384 37.4434L28.7147 38.8172C28.8637 38.8065 29.012 38.8012 29.1601 38.8012V41.4578C27.2068 41.4578 25.6178 43.0469 25.6178 45.0002C25.6178 46.9534 27.2068 48.5425 29.1601 48.5425V51.1992C29.0151 51.1992 28.8702 51.1941 28.7246 51.1839L27.5462 52.5602L27.28 52.493C26.9152 52.4009 26.5546 52.2815 26.2077 52.1381C25.8615 51.9944 25.5221 51.8238 25.1991 51.631L24.9633 51.4903L25.1031 49.6868C24.8812 49.4946 24.6726 49.2864 24.48 49.0647L22.6732 49.2047L22.5325 48.969C22.3396 48.6458 22.169 48.3065 22.0252 47.9599C21.8819 47.6134 21.7626 47.2528 21.6705 46.8881L21.6033 46.6219L22.9771 45.4456C22.9664 45.2965 22.9611 45.1475 22.9611 45.0002Z" fill="#3A4F66"/>
<path d="M29.1615 40.5713L28.2759 41.4569L29.1615 42.3424C30.6264 42.3424 31.8182 43.5343 31.8182 44.9992C31.8182 46.4641 30.6264 47.6559 29.1615 47.6559L28.2759 48.5415L29.1615 49.4271C31.603 49.4271 33.5894 47.4408 33.5894 44.9992C33.5894 42.5576 31.603 40.5713 29.1615 40.5713Z" fill="#66829C"/>
<path d="M26.5031 44.9992C26.5031 43.5343 27.6949 42.3424 29.1598 42.3424V40.5713C26.7183 40.5713 24.7319 42.5576 24.7319 44.9992C24.7319 47.4408 26.7183 49.4271 29.1598 49.4271V47.6559C27.6949 47.6559 26.5031 46.4641 26.5031 44.9992V44.9992Z" fill="#66829C"/>
</svg>
