<svg width="100" height="100" viewBox="0 0 100 100" fill="none" xmlns="http://www.w3.org/2000/svg">
<path opacity="0.15" d="M41.1872 97.8535C23.2955 97.8535 8.79134 96.4544 8.79134 94.7285C8.79134 93.0026 23.2955 91.6035 41.1872 91.6035C59.0789 91.6035 73.583 93.0026 73.583 94.7285C73.583 96.4544 59.0789 97.8535 41.1872 97.8535Z" fill="#45413C"/>
<path d="M30.5212 22.3753L32.0837 16.3545C32.1583 16.0381 32.3122 15.7459 32.5309 15.5054C32.7495 15.2649 33.0258 15.0839 33.3337 14.9795L39.792 13.0628C40.2893 12.9139 40.8254 12.9684 41.2824 13.2145C41.7395 13.4607 42.0801 13.8782 42.2295 14.3753L43.4795 18.542L30.5212 22.3753Z" fill="#E8F4FA" stroke="#45413C" stroke-linecap="round" stroke-linejoin="round"/>
<path d="M44.4793 42.417L47.8335 53.7087L45.9377 54.2712L38.4585 46.2503L44.4793 42.417Z" fill="#C0DCEB" stroke="#45413C" stroke-linecap="round" stroke-linejoin="round"/>
<path d="M53.0624 36.792L54.9582 43.1878C55.4824 44.9783 55.5452 46.8722 55.1409 48.6934C54.7366 50.5146 53.8782 52.204 52.6457 53.6045C51.27 55.1445 49.4969 56.2761 47.5207 56.8753L41.8332 58.542C40.782 58.8546 39.663 58.8578 38.61 58.5511C37.5571 58.2445 36.6147 57.641 35.8957 56.8128L26.9582 46.5837L53.0624 36.792ZM38.2916 53.167C38.7762 53.7184 39.4075 54.1208 40.112 54.3274C40.8164 54.5339 41.5651 54.5361 42.2707 54.3337L46.0416 53.2087C47.3669 52.8227 48.553 52.0633 49.4582 51.0212C50.2873 50.0933 50.8645 48.9683 51.1344 47.7536C51.4043 46.5389 51.358 45.2753 50.9999 44.0837L49.7499 39.917L32.3332 46.417L38.2916 53.167Z" fill="#87898C"/>
<path d="M51.2917 46.3125C51.3193 45.5584 51.2208 44.8049 51 44.0833L49.75 39.9167L32.3333 46.4167L38.2917 53.25C38.5387 53.5261 38.8185 53.771 39.125 53.9792L35.4167 56.25L27.0833 46.6042L53.1875 36.8125L55.0833 43.2083C55.0833 43.4583 55.1875 43.7083 55.25 43.9583L51.2917 46.3125Z" fill="#656769"/>
<path d="M53.0624 36.792L54.9582 43.1878C55.4824 44.9783 55.5452 46.8722 55.1409 48.6934C54.7366 50.5146 53.8782 52.204 52.6457 53.6045C51.27 55.1445 49.4969 56.2761 47.5207 56.8753L41.8332 58.542C40.782 58.8546 39.663 58.8578 38.61 58.5511C37.5571 58.2445 36.6147 57.641 35.8957 56.8128L26.9582 46.5837L53.0624 36.792ZM38.2916 53.167C38.7762 53.7184 39.4075 54.1208 40.112 54.3274C40.8164 54.5339 41.5651 54.5361 42.2707 54.3337L46.0416 53.2087C47.3669 52.8227 48.553 52.0633 49.4582 51.0212C50.2873 50.0933 50.8645 48.9683 51.1344 47.7536C51.4043 46.5389 51.358 45.2753 50.9999 44.0837L49.7499 39.917L32.3332 46.417L38.2916 53.167Z" stroke="#45413C" stroke-linecap="round" stroke-linejoin="round"/>
<path d="M90.2518 6.33972L33.6586 23.0927L37.5615 36.2771L94.1547 19.5242C94.621 19.3862 95.0133 19.0686 95.2454 18.6413C95.4775 18.2141 95.5303 17.7121 95.3923 17.2459L92.5361 7.59724C92.3981 7.13101 92.0805 6.7387 91.6532 6.50662C91.2259 6.27453 90.724 6.22168 90.2578 6.3597L90.2518 6.33972Z" fill="#E8F4FA"/>
<path d="M90.2503 6.24916C90.7172 6.11391 91.2187 6.16961 91.6445 6.40401C92.0704 6.63841 92.3857 7.03234 92.5212 7.49916L93.917 12.2908C93.7767 11.8317 93.4639 11.4449 93.0442 11.2118C92.6246 10.9787 92.1309 10.9174 91.667 11.0408L35.0628 27.7075L33.667 23.02L90.2503 6.24916Z" fill="white"/>
<path d="M90.2518 6.33972L33.6586 23.0927L37.5615 36.2771L94.1547 19.5242C94.621 19.3862 95.0133 19.0686 95.2454 18.6413C95.4775 18.2141 95.5303 17.7121 95.3923 17.2459L92.5361 7.59724C92.3981 7.13101 92.0805 6.7387 91.6532 6.50662C91.2259 6.27453 90.724 6.22168 90.2578 6.3597L90.2518 6.33972Z" stroke="#45413C" stroke-linecap="round" stroke-linejoin="round"/>
<path d="M5.20833 29.2707C10.6477 31.1166 15.2739 34.8 18.2917 39.6874L19.5 41.6666L24.8125 31.9166L20.8333 29.4791C18.5113 28.0498 15.9144 27.1256 13.2115 26.7666C10.5086 26.4077 7.76038 26.622 5.14583 27.3957C4.93203 27.4479 4.74272 27.5722 4.60971 27.7475C4.47671 27.9229 4.4081 28.1386 4.41543 28.3586C4.42277 28.5786 4.50558 28.7893 4.64998 28.9554C4.79437 29.1215 4.99152 29.2328 5.20833 29.2707Z" fill="#BDBEC0"/>
<path d="M5.25 27.4172C7.86455 26.6435 10.6127 26.4292 13.3156 26.7881C16.0185 27.1471 18.6155 28.0713 20.9375 29.5005L24.8125 31.8755L23.625 33.9589L22.3125 33.1464C18.1925 30.6305 13.2857 29.7323 8.54166 30.6255C7.46858 30.0684 6.35418 29.5948 5.20833 29.2089C5.02814 29.1357 4.87447 29.0094 4.76774 28.8469C4.661 28.6843 4.60626 28.4931 4.61079 28.2987C4.61531 28.1042 4.67887 27.9158 4.79305 27.7583C4.90722 27.6009 5.0666 27.4819 5.25 27.4172V27.4172Z" fill="#E0E0E0"/>
<path d="M5.20833 29.2707C10.6477 31.1166 15.2739 34.8 18.2917 39.6874L19.5 41.6666L24.8125 31.9166L20.8333 29.4791C18.5113 28.0498 15.9144 27.1256 13.2115 26.7666C10.5086 26.4077 7.76038 26.622 5.14583 27.3957C4.93203 27.4479 4.74272 27.5722 4.60971 27.7475C4.47671 27.9229 4.4081 28.1386 4.41543 28.3586C4.42277 28.5786 4.50558 28.7893 4.64998 28.9554C4.79437 29.1215 4.99152 29.2328 5.20833 29.2707Z" stroke="#45413C" stroke-linecap="round" stroke-linejoin="round"/>
<path d="M8.33349 88.8957L7.20849 74.3124C6.78558 70.1112 7.25555 65.868 8.58758 61.8611C9.91961 57.8543 12.0836 54.1743 14.9377 51.0624V51.0624C15.7063 50.2177 16.2457 49.1902 16.5047 48.0779C16.7636 46.9656 16.7334 45.8055 16.4168 44.7082L15.271 40.8749C15.0863 40.2639 15.0563 39.6167 15.1836 38.9913C15.3108 38.3658 15.5914 37.7818 16.0002 37.2916L25.771 25.2707C27.8404 22.7286 30.6285 20.8699 33.771 19.9374L45.0418 16.6666C45.544 16.5443 46.0737 16.613 46.528 16.8594C46.9823 17.1058 47.3288 17.5123 47.5002 17.9999L53.896 39.5832L30.021 53.4374C28.661 54.2155 27.6429 55.476 27.1683 56.9692C26.6937 58.4624 26.7973 60.0794 27.4585 61.4999L35.8335 81.2499C36.1508 82.0121 36.3039 82.8326 36.2829 83.6579C36.2618 84.4832 36.067 85.2949 35.7113 86.0399C35.3555 86.7849 34.8466 87.4465 34.218 87.9817C33.5893 88.5168 32.8549 88.9135 32.0627 89.1457L15.9793 93.9166C15.1442 94.1811 14.2606 94.2563 13.3928 94.1365C12.525 94.0168 11.6948 93.7051 10.9625 93.2243C10.2302 92.7434 9.61432 92.1054 9.15956 91.3567C8.70479 90.6079 8.4226 89.7672 8.33349 88.8957V88.8957Z" fill="#DAEDF7"/>
<path d="M16.5212 44.7291L15.3753 40.8957C15.1907 40.2848 15.1606 39.6375 15.2879 39.0121C15.4152 38.3867 15.6958 37.8026 16.1045 37.3124L25.8753 25.2916C27.9447 22.7495 30.7328 20.8907 33.8753 19.9582L45.042 16.6666C45.5441 16.5443 46.0738 16.613 46.5281 16.8594C46.9824 17.1058 47.3289 17.5123 47.5003 17.9999L48.8545 22.5832C48.7051 22.0861 48.3645 21.6686 47.9074 21.4224C47.4503 21.1763 46.9143 21.1218 46.417 21.2707L35.2503 24.5832C32.098 25.5072 29.3009 27.3671 27.2295 29.9166L17.4587 41.9166C17.0518 42.4082 16.7678 42.9896 16.6302 43.6127C16.4925 44.2357 16.5051 44.8827 16.667 45.4999L16.5212 44.7291Z" fill="#E8F4FA"/>
<path d="M8.33349 88.8957L7.20849 74.3124C6.78558 70.1112 7.25555 65.868 8.58758 61.8611C9.91961 57.8543 12.0836 54.1743 14.9377 51.0624V51.0624C15.7063 50.2177 16.2457 49.1902 16.5047 48.0779C16.7636 46.9656 16.7334 45.8055 16.4168 44.7082L15.271 40.8749C15.0863 40.2639 15.0563 39.6167 15.1836 38.9913C15.3108 38.3658 15.5914 37.7818 16.0002 37.2916L25.771 25.2707C27.8404 22.7286 30.6285 20.8699 33.771 19.9374L45.0418 16.6666C45.544 16.5443 46.0737 16.613 46.528 16.8594C46.9823 17.1058 47.3288 17.5123 47.5002 17.9999L53.896 39.5832L30.021 53.4374C28.661 54.2155 27.6429 55.476 27.1683 56.9692C26.6937 58.4624 26.7973 60.0794 27.4585 61.4999L35.8335 81.2499C36.1508 82.0121 36.3039 82.8326 36.2829 83.6579C36.2618 84.4832 36.067 85.2949 35.7113 86.0399C35.3555 86.7849 34.8466 87.4465 34.218 87.9817C33.5893 88.5168 32.8549 88.9135 32.0627 89.1457L15.9793 93.9166C15.1442 94.1811 14.2606 94.2563 13.3928 94.1365C12.525 94.0168 11.6948 93.7051 10.9625 93.2243C10.2302 92.7434 9.61432 92.1054 9.15956 91.3567C8.70479 90.6079 8.4226 89.7672 8.33349 88.8957V88.8957Z" stroke="#45413C" stroke-linecap="round" stroke-linejoin="round"/>
<path d="M84.1453 3.02079L86.8537 2.22912C87.1013 2.15576 87.3609 2.1321 87.6177 2.15948C87.8745 2.18686 88.1233 2.26476 88.3498 2.38868C88.5764 2.51261 88.7762 2.68011 88.9377 2.88155C89.0993 3.083 89.2194 3.31441 89.2912 3.56246L90.1245 6.37496L81.6453 8.89579L82.812 4.41662C82.8948 4.08861 83.0611 3.78763 83.2947 3.54301C83.5284 3.29839 83.8215 3.11848 84.1453 3.02079V3.02079Z" fill="white" stroke="#45413C" stroke-linecap="round" stroke-linejoin="round"/>
<path d="M93.0767 19.834L51.6655 32.0927L53.6169 38.6849L93.1503 26.9821C93.6483 26.8347 94.0674 26.4954 94.3153 26.039C94.5632 25.5826 94.6197 25.0464 94.4722 24.5484L93.0767 19.834Z" fill="#C0DCEB"/>
<path d="M93.1003 19.8376L93.9341 22.6543L52.5229 34.913L51.6891 32.0963L93.1003 19.8376Z" fill="#ADC4D9"/>
<path d="M93.0767 19.834L51.6655 32.0927L53.6169 38.6849L93.1503 26.9821C93.6483 26.8347 94.0674 26.4954 94.3153 26.039C94.5632 25.5826 94.6197 25.0464 94.4722 24.5484L93.0767 19.834Z" stroke="#45413C" stroke-linecap="round" stroke-linejoin="round"/>
<path d="M7.31253 74.333C6.88878 70.1414 7.35449 65.9076 8.6792 61.9083C10.0039 57.909 12.1578 54.2344 15 51.1246C15.7775 50.3064 16.3286 49.2998 16.5989 48.2039C16.8692 47.108 16.8495 45.9606 16.5417 44.8746L15.8959 42.7913L20.0625 41.5205C20.4764 41.4015 20.9171 41.4138 21.3237 41.5556C21.7304 41.6973 22.0831 41.9617 22.3334 42.3121L23.9375 44.6038C24.2836 45.0946 24.7664 45.4727 25.3257 45.6913C25.885 45.9098 26.4962 45.9591 27.0834 45.833L28.9167 45.5205C30.1071 45.3289 31.3276 45.5056 32.4148 46.0268C33.502 46.5481 34.404 47.3891 35 48.4371L35.9375 50.1246L30.0834 53.5205C28.7234 54.2985 27.7052 55.559 27.2307 57.0523C26.7561 58.5455 26.8596 60.1625 27.5209 61.583L35.8334 81.2496C36.1507 82.0118 36.3038 82.8323 36.2828 83.6577C36.2617 84.483 36.0669 85.2946 35.7111 86.0396C35.3553 86.7846 34.8465 87.4463 34.2178 87.9814C33.5892 88.5166 32.8548 88.9132 32.0625 89.1455L15.9792 93.9163C15.1441 94.1809 14.2605 94.256 13.3927 94.1363C12.5249 94.0165 11.6946 93.7049 10.9624 93.224C10.2301 92.7431 9.61419 92.1052 9.15943 91.3564C8.70466 90.6077 8.42247 89.767 8.33336 88.8955L7.31253 74.333Z" fill="#656769"/>
<path d="M8.33316 88.8955L7.20816 74.3121C6.80123 70.1164 7.28496 65.8821 8.62767 61.8863C9.97038 57.8905 12.1418 54.2232 14.9998 51.1246C15.7773 50.3064 16.3284 49.2998 16.5987 48.2039C16.869 47.108 16.8493 45.9606 16.5415 44.8746L15.8957 42.7913L20.0623 41.5205C20.4763 41.4015 20.9169 41.4138 21.3235 41.5556C21.7302 41.6973 22.0829 41.9617 22.3332 42.3121L22.6665 42.8121L21.7082 43.1038C21.4601 43.1756 21.2287 43.2957 21.0273 43.4573C20.8258 43.6188 20.6583 43.8186 20.5344 44.0452C20.4105 44.2717 20.3326 44.5205 20.3052 44.7773C20.2778 45.0341 20.3015 45.2937 20.3748 45.5413V45.833C20.6806 46.9191 20.6992 48.066 20.429 49.1615C20.1588 50.257 19.6089 51.2636 18.8332 52.083C16.0278 55.1952 13.907 58.8616 12.6079 62.845C11.3088 66.8285 10.8603 71.0403 11.2915 75.208L12.4165 89.7913C12.5047 90.6709 12.7904 91.5193 13.2521 92.2732C13.7138 93.0271 14.3397 93.6671 15.0832 94.1455C14.2918 94.2683 13.4836 94.2281 12.7084 94.0272C11.9331 93.8264 11.2071 93.4691 10.5749 92.9775C9.94279 92.4858 9.41783 91.87 9.03231 91.1681C8.6468 90.4661 8.40888 89.6927 8.33316 88.8955V88.8955Z" fill="#87898C"/>
<path d="M7.31253 74.333C6.88878 70.1414 7.35449 65.9076 8.6792 61.9083C10.0039 57.909 12.1578 54.2344 15 51.1246C15.7775 50.3064 16.3286 49.2998 16.5989 48.2039C16.8692 47.108 16.8495 45.9606 16.5417 44.8746L15.8959 42.7913L20.0625 41.5205C20.4764 41.4015 20.9171 41.4138 21.3237 41.5556C21.7304 41.6973 22.0831 41.9617 22.3334 42.3121L23.9375 44.6038C24.2836 45.0946 24.7664 45.4727 25.3257 45.6913C25.885 45.9098 26.4962 45.9591 27.0834 45.833L28.9167 45.5205C30.1071 45.3289 31.3276 45.5056 32.4148 46.0268C33.502 46.5481 34.404 47.3891 35 48.4371L35.9375 50.1246L30.0834 53.5205C28.7234 54.2985 27.7052 55.559 27.2307 57.0523C26.7561 58.5455 26.8596 60.1625 27.5209 61.583L35.8334 81.2496C36.1507 82.0118 36.3038 82.8323 36.2828 83.6577C36.2617 84.483 36.0669 85.2946 35.7111 86.0396C35.3553 86.7846 34.8465 87.4463 34.2178 87.9814C33.5892 88.5166 32.8548 88.9132 32.0625 89.1455L15.9792 93.9163C15.1441 94.1809 14.2605 94.256 13.3927 94.1363C12.5249 94.0165 11.6946 93.7049 10.9624 93.224C10.2301 92.7431 9.61419 92.1052 9.15943 91.3564C8.70466 90.6077 8.42247 89.767 8.33336 88.8955L7.31253 74.333Z" stroke="#45413C" stroke-linecap="round" stroke-linejoin="round"/>
<path d="M20.1253 41.417L32.2295 37.8545" stroke="#45413C" stroke-linecap="round" stroke-linejoin="round"/>
<path d="M47.2921 24.1867L35.0466 27.8117C33.5472 28.2555 32.2856 29.2768 31.5392 30.6509C30.7929 32.0249 30.6229 33.6392 31.0668 35.1386L31.3447 36.0774C31.7885 37.5768 32.8098 38.8384 34.1839 39.5848C35.5579 40.3312 37.1722 40.5011 38.6715 40.0573L50.9171 36.4323C51.1637 36.3593 51.3935 36.2384 51.5934 36.0766C51.7933 35.9148 51.9593 35.7152 52.0821 35.4892C52.2048 35.2633 52.2819 35.0153 52.3088 34.7595C52.3357 34.5038 52.312 34.2452 52.239 33.9986L49.7258 25.5086C49.5784 25.0106 49.2391 24.5916 48.7827 24.3437C48.3263 24.0958 47.7902 24.0393 47.2921 24.1867V24.1867Z" fill="#BDBEC0"/>
<path d="M35.0413 27.7924L47.2705 24.1882C47.5167 24.1115 47.7757 24.0848 48.0323 24.1095C48.289 24.1342 48.5381 24.2099 48.7651 24.3322C48.9921 24.4544 49.1924 24.6207 49.3543 24.8214C49.5163 25.022 49.6365 25.253 49.708 25.5007L50.833 29.2715C50.6619 28.7883 50.3187 28.3852 49.869 28.1392C49.4193 27.8932 48.8947 27.8216 48.3955 27.9382L36.1663 31.5632C34.9219 31.9403 33.8377 32.7196 33.0837 33.779C32.3297 34.8384 31.9484 36.118 31.9997 37.4174C31.744 36.9922 31.5411 36.5375 31.3955 36.0632L31.1038 35.1257C30.6621 33.6311 30.8278 32.0226 31.565 30.6496C32.3023 29.2765 33.5515 28.2498 35.0413 27.7924V27.7924Z" fill="#E0E0E0"/>
<path d="M47.2921 24.1867L35.0466 27.8117C33.5472 28.2555 32.2856 29.2768 31.5392 30.6509C30.7929 32.0249 30.6229 33.6392 31.0668 35.1386L31.3447 36.0774C31.7885 37.5768 32.8098 38.8384 34.1839 39.5848C35.5579 40.3312 37.1722 40.5011 38.6715 40.0573L50.9171 36.4323C51.1637 36.3593 51.3935 36.2384 51.5934 36.0766C51.7933 35.9148 51.9593 35.7152 52.0821 35.4892C52.2048 35.2633 52.2819 35.0153 52.3088 34.7595C52.3357 34.5038 52.312 34.2452 52.239 33.9986L49.7258 25.5086C49.5784 25.0106 49.2391 24.5916 48.7827 24.3437C48.3263 24.0958 47.7902 24.0393 47.2921 24.1867V24.1867Z" stroke="#45413C" stroke-linecap="round" stroke-linejoin="round"/>
<path d="M50.2705 27.3965L38.0413 31.0007" stroke="#45413C" stroke-linecap="round" stroke-linejoin="round"/>
<path d="M51.6665 32.084L39.4373 35.709" stroke="#45413C" stroke-linecap="round" stroke-linejoin="round"/>
</svg>
