<svg width="49" height="26" viewBox="0 0 49 26" fill="none" xmlns="http://www.w3.org/2000/svg">
<g opacity="0.25">
<g clip-path="url(#clip0_426:268)">
<path d="M20.8135 19.5051L20.8135 23.4346L27.9636 23.4346L27.9636 19.5051L20.8135 19.5051Z" fill="#BFD4E0"/>
<path d="M24.3882 19.5051L24.3882 23.4346L27.9632 23.4346L27.9632 19.5051L24.3882 19.5051Z" fill="#BFD4E0"/>
<path d="M20.1499 8.4114L20.1499 21.0195L28.661 21.0195L28.661 8.4114L20.1499 8.4114Z" fill="#8EB0BC"/>
<path d="M20.1499 22.2146L20.1499 25.8408L28.661 25.8408L28.661 22.2146L20.1499 22.2146Z" fill="#BFD4E0"/>
<path d="M24.3882 22.2146L24.3882 25.8408L28.6599 25.8408L28.6599 22.2146L24.3882 22.2146Z" fill="#BFD4E0"/>
<path d="M24.3882 8.4114L24.3882 21.0195L28.6599 21.0195L28.6599 8.4114L24.3882 8.4114Z" fill="#8EB0BC"/>
<path d="M24.4045 -0.000275535L24.8503 0.324298C25.2324 0.602943 25.5943 0.918986 25.9336 1.27031C26.2723 1.62163 26.5884 2.00732 26.8796 2.42633C28.0442 4.10279 28.6601 6.09682 28.6601 8.19279L28.6601 9.92578L20.1489 9.92578L20.1489 8.19279C20.1489 6.09682 20.7648 4.10284 21.9294 2.42633C22.5114 1.58883 23.1939 0.881589 23.9588 0.324298L24.3884 0.0113331L24.4045 -0.000275535Z" fill="#BFD4E0"/>
<path d="M24.4048 -0.000268023L24.8505 0.324305C25.2327 0.60295 25.5946 0.918993 25.9339 1.27032C26.2726 1.62164 26.5886 2.00733 26.8799 2.42633C28.0445 4.1028 28.6604 6.09682 28.6604 8.19279L28.6604 9.92578L24.3887 9.92578L24.3887 0.0113406L24.4048 -0.000268023Z" fill="#BFD4E0"/>
</g>
<g clip-path="url(#clip1_426:268)">
<path d="M9.3291 19.5051L9.3291 23.4346L16.4792 23.4346L16.4792 19.5051L9.3291 19.5051Z" fill="#BFD4E0"/>
<path d="M12.9038 19.5051L12.9038 23.4346L16.4789 23.4346L16.4789 19.5051L12.9038 19.5051Z" fill="#BFD4E0"/>
<path d="M8.66553 8.4114L8.66553 21.0195L17.1766 21.0195L17.1766 8.4114L8.66553 8.4114Z" fill="#8EB0BC"/>
<path d="M8.66553 22.2146L8.66553 25.8408L17.1766 25.8408L17.1766 22.2146L8.66553 22.2146Z" fill="#BFD4E0"/>
<path d="M12.9038 22.2146L12.9038 25.8408L17.1755 25.8408L17.1755 22.2146L12.9038 22.2146Z" fill="#BFD4E0"/>
<path d="M12.9038 8.4114L12.9038 21.0195L17.1755 21.0195L17.1755 8.4114L12.9038 8.4114Z" fill="#8EB0BC"/>
<path d="M12.9201 -0.000275535L13.3659 0.324298C13.748 0.602943 14.11 0.918986 14.4492 1.27031C14.7879 1.62163 15.104 2.00732 15.3952 2.42633C16.5598 4.10279 17.1757 6.09682 17.1757 8.19279L17.1757 9.92578L8.66455 9.92578L8.66455 8.19279C8.66455 6.09682 9.28044 4.10284 10.445 2.42633C11.0271 1.58883 11.7096 0.881589 12.4744 0.324298L12.904 0.0113331L12.9201 -0.000275535Z" fill="#BFD4E0"/>
<path d="M12.9204 -0.000268023L13.3661 0.324305C13.7483 0.60295 14.1102 0.918993 14.4495 1.27032C14.7882 1.62164 15.1042 2.00733 15.3955 2.42633C16.5601 4.1028 17.176 6.09682 17.176 8.19279L17.176 9.92578L12.9043 9.92578L12.9043 0.0113406L12.9204 -0.000268023Z" fill="#BFD4E0"/>
</g>
<g clip-path="url(#clip2_426:268)">
<path d="M32.2983 19.5051L32.2983 23.4346L39.4484 23.4346L39.4484 19.5051L32.2983 19.5051Z" fill="#BFD4E0"/>
<path d="M35.873 19.5051L35.873 23.4346L39.4481 23.4346L39.4481 19.5051L35.873 19.5051Z" fill="#BFD4E0"/>
<path d="M31.6348 8.4114L31.6348 21.0195L40.1458 21.0195L40.1458 8.4114L31.6348 8.4114Z" fill="#8EB0BC"/>
<path d="M31.6348 22.2146L31.6348 25.8408L40.1458 25.8408L40.1458 22.2146L31.6348 22.2146Z" fill="#BFD4E0"/>
<path d="M35.873 22.2146L35.873 25.8408L40.1447 25.8408L40.1447 22.2146L35.873 22.2146Z" fill="#BFD4E0"/>
<path d="M35.873 8.4114L35.873 21.0195L40.1447 21.0195L40.1447 8.4114L35.873 8.4114Z" fill="#8EB0BC"/>
<path d="M35.8894 -0.000275535L36.3351 0.324298C36.7173 0.602943 37.0792 0.918986 37.4185 1.27031C37.7572 1.62163 38.0732 2.00732 38.3645 2.42633C39.5291 4.10279 40.145 6.09682 40.145 8.19279L40.145 9.92578L31.6338 9.92578L31.6338 8.19279C31.6338 6.09682 32.2497 4.10284 33.4143 2.42633C33.9963 1.58883 34.6788 0.881589 35.4436 0.324298L35.8732 0.0113331L35.8894 -0.000275535Z" fill="#BFD4E0"/>
<path d="M35.8896 -0.000268023L36.3354 0.324305C36.7175 0.60295 37.0795 0.918993 37.4187 1.27032C37.7574 1.62164 38.0735 2.00733 38.3647 2.42633C39.5293 4.1028 40.1452 6.09682 40.1452 8.19279L40.1452 9.92578L35.8735 9.92578L35.8735 0.0113406L35.8896 -0.000268023Z" fill="#BFD4E0"/>
</g>
</g>
<defs>
<clipPath id="clip0_426:268">
<rect width="25.8407" height="25.8407" fill="white" transform="translate(11.4844 25.8408) rotate(-90)"/>
</clipPath>
<clipPath id="clip1_426:268">
<rect width="25.8407" height="25.8407" fill="white" transform="translate(0 25.8408) rotate(-90)"/>
</clipPath>
<clipPath id="clip2_426:268">
<rect width="25.8407" height="25.8407" fill="white" transform="translate(22.9692 25.8408) rotate(-90)"/>
</clipPath>
</defs>
</svg>
