<svg width="43" height="43" viewBox="0 0 43 43" fill="none" xmlns="http://www.w3.org/2000/svg">
<g clip-path="url(#clip0_426:223)">
<path d="M21.718 22.3872C22.1911 22.3872 22.6647 22.2626 23.0845 22.0119L23.7103 21.6382C24.0091 21.4597 24.1066 21.0728 23.9282 20.774C23.7497 20.4751 23.3628 20.3777 23.0639 20.556L22.4382 20.9298C21.9725 21.208 21.3807 21.1916 20.9307 20.8882L19.7223 20.0615L18.9839 21.0839L20.2258 21.9331C20.6736 22.2351 21.1954 22.3872 21.718 22.3872Z" fill="#414549"/>
<path d="M34.8579 0.713867L4.28521 18.9723C3.20215 19.619 2.8485 21.0214 3.49534 22.1045L5.46536 25.4032C5.91216 26.1513 6.75989 26.5383 7.62594 26.4423C8.71261 26.3218 9.72428 27.0186 9.99782 28.0792L13.52 41.7386C13.7989 42.8204 15.0362 43.3335 15.9988 42.7669L22.2402 39.0926C22.8858 38.7125 23.2017 37.951 23.0146 37.2255L21.2787 30.4929C20.8979 29.0161 21.5362 27.4574 22.8553 26.692C22.8715 26.6826 22.8876 26.6732 22.9036 26.6636L28.8313 23.1235C30.5171 22.1167 31.0676 19.9339 30.0608 18.2481L28.7397 16.036C28.5294 15.6838 28.6444 15.2277 28.9966 15.0173L38.682 9.23306C39.1964 8.92584 39.3644 8.25985 39.0572 7.74545L34.8579 0.713867ZM28.2404 19.4048C28.5898 19.99 28.3988 20.7476 27.8136 21.0972L21.6373 24.7857C21.6317 24.789 21.6262 24.7922 21.6206 24.7955C20.8301 25.2588 19.8145 24.8151 19.5857 23.9278L19.4485 23.3957C19.0939 22.0207 19.6877 20.5765 20.9068 19.8484L25.8697 16.8844C26.222 16.6741 26.6781 16.7891 26.8885 17.1413L28.2404 19.4048Z" fill="#4D4E52"/>
<path d="M37.1159 0.456721C36.8506 0.0124446 36.2753 -0.13268 35.8309 0.13271L4.28521 18.9722C3.20215 19.619 2.8485 21.0213 3.49534 22.1044L5.46536 25.4031C5.48308 25.4328 5.50248 25.4609 5.52146 25.4894L39.8293 5.00027L37.1159 0.456721Z" fill="#4C4D52"/>
<path d="M3.72607 22.493L5.46396 25.4031C5.48168 25.4327 5.50108 25.4608 5.52006 25.4894L39.8279 5.00027L38.0373 2.00195L3.72607 22.493Z" fill="#414549"/>
<path d="M38.0518 6.06152L24.5887 14.1018C24.5999 14.2051 24.6321 14.3075 24.6889 14.4024L26.0099 16.6145C26.0451 16.6734 26.078 16.7331 26.1094 16.7932C26.4079 16.7353 26.7236 16.8648 26.8885 17.1409L28.2403 19.4043C28.5898 19.9895 28.3987 20.7472 27.8135 21.0967L21.6372 24.7852C21.6317 24.7885 21.6261 24.7918 21.6206 24.795C21.0031 25.1569 20.2482 24.9654 19.8384 24.4413L18.8526 25.0299C18.8366 25.0395 18.8206 25.049 18.8044 25.0583C17.4852 25.8237 16.8469 27.3824 17.2277 28.8592L18.9638 35.5918C19.1508 36.3172 18.8349 37.0788 18.1893 37.4589L13.1772 40.4095L13.5198 41.738C13.7987 42.8197 15.0361 43.333 15.9987 42.7662L22.2401 39.0919C22.8857 38.7119 23.2015 37.9503 23.0145 37.2249L21.2784 30.4923C20.8977 29.0155 21.5359 27.4568 22.8551 26.6914C22.8713 26.682 22.8873 26.6726 22.9034 26.663L28.8311 23.1229C30.5169 22.1161 31.0674 19.9333 30.0606 18.2475L28.7395 16.0354C28.5291 15.6832 28.6442 15.2271 28.9964 15.0167L38.6818 9.23243C39.1962 8.92522 39.3641 8.25922 39.057 7.74482L38.0518 6.06152Z" fill="#4D4E52"/>
<path d="M16.9002 24.9277L12.4766 27.5695C12.2621 27.6975 12.1576 27.9517 12.22 28.1936L15.242 39.9137C15.3355 40.2764 15.7503 40.4484 16.0731 40.2584L20.3718 37.7277C20.6694 37.5525 20.815 37.2014 20.7286 36.8669L17.7344 25.2704C17.6405 24.9065 17.223 24.7349 16.9002 24.9277Z" fill="#4C4E52"/>
<path d="M20.7289 36.8671L17.7346 25.2706C17.6407 24.9065 17.2233 24.7349 16.9005 24.9277L14.4233 26.407L17.7457 39.2739L20.3721 37.7277C20.6697 37.5527 20.8152 37.2015 20.7289 36.8671Z" fill="#414549"/>
<path d="M9.21546 18.3414C9.1403 17.9909 8.79538 17.7676 8.44449 17.8426C8.09394 17.9178 7.87054 18.263 7.94571 18.6136L8.49471 21.1744C8.56005 21.4791 8.82939 21.6877 9.12896 21.6877C9.17406 21.6877 9.21983 21.683 9.26569 21.6731C9.61624 21.598 9.83964 21.2528 9.76447 20.9022L9.21546 18.3414Z" fill="#4F5257"/>
<path d="M11.3434 17.0699C11.2682 16.7194 10.9232 16.4962 10.5724 16.5711C10.2219 16.6463 9.99847 16.9915 10.0736 17.3421L10.6226 19.9029C10.688 20.2076 10.9573 20.4162 11.2569 20.4162C11.302 20.4162 11.3478 20.4115 11.3936 20.4016C11.7442 20.3265 11.9675 19.9813 11.8924 19.6307L11.3434 17.0699Z" fill="#4F5257"/>
<path d="M13.4727 15.7994C13.3975 15.4488 13.0525 15.2257 12.7018 15.3006C12.3512 15.3758 12.1279 15.721 12.203 16.0715L12.752 18.6323C12.8173 18.9371 13.0866 19.1456 13.3862 19.1456C13.4313 19.1456 13.4771 19.1409 13.5229 19.1311C13.8736 19.0559 14.0969 18.7107 14.0217 18.3602L13.4727 15.7994Z" fill="#4F5257"/>
<path d="M15.6012 14.5279C15.526 14.1774 15.181 13.9542 14.8302 14.0291C14.4797 14.1043 14.2563 14.4495 14.3314 14.8001L14.8805 17.3609C14.9458 17.6656 15.2151 17.8742 15.5147 17.8742C15.5598 17.8742 15.6056 17.8695 15.6514 17.8596C16.002 17.7845 16.2253 17.4393 16.1502 17.0887L15.6012 14.5279Z" fill="#4F5257"/>
</g>
<defs>
<clipPath id="clip0_426:223">
<rect width="43" height="43" fill="white"/>
</clipPath>
</defs>
</svg>
