<svg width="43" height="43" viewBox="0 0 43 43" fill="none" xmlns="http://www.w3.org/2000/svg">
<g clip-path="url(#clip0_426:252)">
<path d="M27.8153 10.9404L22 16.7557H17.9512L23.7663 10.9404H27.8153Z" fill="#8EB0BC"/>
<path d="M24.1843 10.2383C24.3163 10.3703 24.3163 10.5842 24.1843 10.716L18.6079 16.2924L13.8503 21.0501C13.7184 21.182 13.5045 21.182 13.3726 21.0501L12.3426 20.0201C12.2107 19.8881 12.2107 19.6742 12.3426 19.5423L22.6766 9.20833C22.8086 9.07639 23.0225 9.07639 23.1543 9.20833L24.1843 10.2383Z" fill="#BFD4E0"/>
<path d="M24.3121 32.1341L22.6374 35.5988C22.4904 35.9029 22.1162 36.0183 21.8235 35.8499L15.0643 31.9619L15.0479 31.9518C15.7889 30.6688 16.837 29.2845 18.2954 27.8262L24.0926 31.3852C24.3472 31.5414 24.442 31.8651 24.3121 32.1341Z" fill="#BFD4E0"/>
<path d="M16.5825 31.5692C17.114 30.786 17.7461 30.0005 18.4727 29.2207L23.1228 32.0753L21.8913 34.623L16.5825 31.5692Z" fill="#8EB0BC"/>
<path d="M32.3638 14.7919L33.1392 14.0166L31.3731 12.2505L30.5977 13.0259L32.3638 14.7919Z" fill="#BFD4E0"/>
<path d="M21.0297 17.5957L3.3154 35.31C2.56339 36.062 2.68761 37.3148 3.57215 37.9051L10.7909 42.7169C11.076 42.907 11.4022 43.0002 11.7256 43.0002C12.1606 43.0002 12.5928 42.8321 12.9181 42.5068C13.7487 41.6762 14.1069 40.4874 13.8775 39.336C13.5714 37.7972 13.5632 35.2707 15.3706 32.1456C16.1117 30.8626 17.1598 29.4783 18.6182 28.0199L20.8185 23.9775C21.2992 23.0957 22.6187 23.3095 22.7987 24.2973C23.0635 25.7579 23.6876 27.4259 25.0236 28.9634C25.2792 29.2576 25.7268 29.2844 26.0132 29.02L29.5025 25.7984C29.7556 25.5647 29.8818 25.2242 29.8426 24.882L29.1738 19.0674C29.1776 19.0325 29.1775 18.9966 29.1728 18.9603C29.1643 18.8919 29.1523 18.8283 29.1363 18.7664C29.135 18.7606 29.1336 18.755 29.132 18.7494C29.0516 18.4539 28.8846 18.201 28.6574 18.0149L28.3958 15.7434L32.3158 11.8234L31.1096 10.6172L21.0297 17.5957ZM28.2415 18.9611L28.8571 24.3118C28.9298 24.9435 28.7101 25.5738 28.2604 26.0234C28.0302 26.2536 27.6968 26.3621 27.3806 26.2847C27.0798 26.2112 26.8482 26.0027 26.7435 25.7103L25.1838 21.3549C25.1136 21.1582 25.1638 20.9357 25.3115 20.7879L27.3446 18.7548C27.5438 18.5557 27.7751 18.5899 27.8653 18.6139C28.0462 18.662 28.1849 18.7907 28.2415 18.9611Z" fill="#BFD4E0"/>
<path d="M14.4728 27.7817C14.006 27.3149 13.2493 27.3149 12.7826 27.7817L4.28563 36.2787C4.19862 36.3657 4.18837 36.4648 4.195 36.5327C4.20181 36.6007 4.23137 36.6961 4.33333 36.7643L11.5522 41.5761C11.6179 41.6201 11.6832 41.6292 11.7268 41.6292C11.7757 41.6292 11.8698 41.6174 11.9499 41.5373C12.4563 41.0309 12.6746 40.308 12.5343 39.6031C12.1771 37.8075 12.1736 34.9371 14.1849 31.4596C14.4833 30.9429 14.8194 30.4262 15.1917 29.9111C15.5335 29.438 15.4762 28.7854 15.0636 28.3727L14.4728 27.7817Z" fill="#8EB0BC"/>
<path d="M32.6319 14.1985L33.1867 13.6443C33.3325 13.4987 33.5687 13.4987 33.7143 13.6445L36.9669 16.8971C37.1127 17.0428 37.1127 17.2792 36.9669 17.4249L35.7714 18.6198C35.6257 18.7654 35.3894 18.7654 35.2437 18.6197L31.9911 15.3671C31.8454 15.2214 31.8454 14.985 31.9911 14.8393L32.6319 14.1985Z" fill="#8EB0BC"/>
<path d="M32.7907 8.35581L40.1777 0.96875L39.2086 -0.000433909L31.8215 7.38663L32.7907 8.35581Z" fill="#BFD4E0"/>
<path d="M27.751 10.8754L31.6967 6.92976C31.8491 6.77732 32.0962 6.77732 32.2486 6.92976L33.2474 7.92851C33.3998 8.08095 33.3998 8.32803 33.2474 8.48047L31.111 10.6169L23.1447 18.5831C22.8341 18.8938 22.3306 18.8938 22.0199 18.5831L21.0312 17.5953L21.9359 16.6907L27.751 10.8754Z" fill="#8EB0BC"/>
<path d="M20.274 21.2749L15.331 26.2179C15.1794 26.3695 15.1794 26.6155 15.331 26.7671C15.4827 26.9187 15.7286 26.9187 15.8802 26.7671L20.8232 21.8241C20.9749 21.6724 20.9749 21.4265 20.8232 21.2749C20.6716 21.1232 20.4257 21.1232 20.274 21.2749Z" fill="#8EB0BC"/>
<path d="M19.3365 20.3374L16.1543 23.5196C16.0026 23.6713 16.0026 23.9172 16.1543 24.0688C16.306 24.2205 16.5519 24.2205 16.7035 24.0688L19.8857 20.8866C20.0374 20.7349 20.0374 20.489 19.8857 20.3374C19.7341 20.1857 19.4882 20.1857 19.3365 20.3374Z" fill="#8EB0BC"/>
</g>
<defs>
<clipPath id="clip0_426:252">
<rect width="43" height="43" fill="white"/>
</clipPath>
</defs>
</svg>
