<svg width="43" height="43" viewBox="0 0 43 43" fill="none" xmlns="http://www.w3.org/2000/svg">
<path d="M19.3003 29.4013C19.0726 29.6296 18.7288 29.7267 18.4001 29.6243L16.4678 29.0221C15.9953 28.8751 15.7316 28.3738 15.8786 27.9013C16.0262 27.429 16.5281 27.1652 17.0005 27.3122L18.9328 27.9131C19.4052 28.0601 19.6689 28.5627 19.5213 29.0351C19.4768 29.1783 19.3993 29.3028 19.3003 29.4013Z" fill="#8EB0BC"/>
<path d="M11.031 42.7382C10.9352 42.8341 10.8184 42.9075 10.6872 42.9521C10.4371 43.0374 10.1629 43.0086 9.93658 42.8734L3.60231 39.073C3.37328 38.9352 3.21714 38.703 3.17717 38.4391C3.1371 38.1754 3.21656 37.9064 3.39436 37.7083L11.037 29.142C11.1563 29.0068 11.3151 28.9123 11.4903 28.869L12.1944 28.6945C12.4864 27.6315 13.2698 25.297 14.8327 23.7328C14.8334 23.7328 14.8334 23.7328 14.8334 23.7328L31.9686 6.59742C32.1366 6.42945 32.3636 6.33496 32.6011 6.33496C32.8387 6.33496 33.067 6.42945 33.235 6.59742L35.7689 9.13133C36.1193 9.48173 36.1193 10.0486 35.7689 10.399L17.5779 28.5895L16.9867 32.7282C16.9447 33.0235 16.7591 33.2781 16.4913 33.408L14.3438 34.4512L11.2324 42.4312C11.1866 42.548 11.1176 42.6516 11.031 42.7382Z" fill="#8EB0BC"/>
<path d="M32.6013 6.33496C32.3638 6.33496 21.4833 17.6505 21.833 18.0008L24.367 20.5348C24.535 20.7027 24.762 20.7972 24.9995 20.7972C25.2383 20.7972 25.4653 20.7027 25.6333 20.5348L35.1353 11.0327L35.7691 10.399C36.1195 10.0486 36.1195 9.48164 35.7691 9.13125L33.2352 6.59734C33.0672 6.42945 32.8389 6.33496 32.6013 6.33496Z" fill="#8EB0BC"/>
<path d="M33.8699 12.2985L35.1362 11.0321L31.3359 7.23047L30.0684 8.49809L33.8699 12.2985Z" fill="#8EB0BC"/>
<path d="M31.3357 14.8326L32.6021 13.5663L28.8019 9.76465L27.5342 11.0323L31.3357 14.8326Z" fill="#8EB0BC"/>
<path d="M28.8016 17.3667L30.0679 16.1004L26.2676 12.2988L25 13.5665L28.8016 17.3667Z" fill="#8EB0BC"/>
<path d="M26.2676 19.8999L27.5339 18.6322L23.7337 14.832L22.4673 16.0983L26.2676 19.8999Z" fill="#8EB0BC"/>
<path d="M39.5698 1.53042L17.3671 23.7325C17.0174 24.0829 16.4505 24.0829 16.1002 23.7325C15.7505 23.3834 15.7505 22.8166 16.1002 22.4662L38.3035 0.262797C38.6526 -0.0875991 39.2207 -0.0875991 39.5698 0.262797C39.9202 0.613194 39.9202 1.18011 39.5698 1.53042Z" fill="#BFD4E0"/>
<path d="M17.0759 22.2715C16.7413 22.1324 16.3561 22.2098 16.0996 22.4656L14.8333 23.7319C14.8333 23.7319 14.8333 23.7319 14.8326 23.7319C13.2698 25.2961 12.4862 27.6306 12.1943 28.6936L11.4902 28.8681C11.315 28.9114 11.1569 29.0059 11.0369 29.1411L3.39433 37.7075C3.21653 37.9056 3.13716 38.1746 3.17714 38.4383C3.2172 38.7021 3.37333 38.9343 3.60228 39.0722L9.93655 42.8725C10.1629 43.0077 10.4371 43.0365 10.6871 42.9513C10.8183 42.9067 10.9352 42.8332 11.031 42.7374C11.1176 42.6508 11.1865 42.5471 11.2324 42.4303L14.3438 34.4504L16.4913 33.4072C16.759 33.2773 16.9446 33.0227 16.9866 32.7274L17.6205 28.2934C17.6264 28.2514 17.6291 28.2094 17.6291 28.1674V23.0995C17.6291 22.7373 17.4112 22.4106 17.0759 22.2715Z" fill="#8EB0BC"/>
</svg>
